<svg xmlns="http://www.w3.org/2000/svg" width="800" height="1000" viewBox="0 0 400 500">
  <defs>
    <linearGradient id="bg" x1="0" y1="0" x2="1" y2="1">
      <stop offset="0" stop-color="#f9eaf2"/>
      <stop offset="1" stop-color="#f3d8e7"/>
    </linearGradient>
    <pattern id="weave" width="9" height="9" patternTransform="rotate(45)" patternUnits="userSpaceOnUse">
      <line x1="0" y1="0" x2="0" y2="9" stroke="#b35a8c" stroke-opacity="0.05" stroke-width="1.4"/>
    </pattern>
  </defs>
  <rect width="400" height="500" fill="url(#bg)"/>
  <rect width="400" height="500" fill="url(#weave)"/>
  <circle cx="200" cy="218" r="118" fill="#ffffff" fill-opacity="0.42"/>
  <circle cx="200" cy="218" r="118" fill="none" stroke="#b35a8c" stroke-opacity="0.25" stroke-width="1.5" stroke-dasharray="3 6"/>
  <g transform="translate(108,126) scale(7.66)" fill="none" stroke="#b35a8c" stroke-width="1.15" stroke-linecap="round" stroke-linejoin="round">
    <path d="M9.4 3C10 4.3 10.9 5 12 5s2-.7 2.6-2c.9.4 1.5 1 1.9 1.8l-1.4 3.6c2 2.6 3.2 6.2 4 11.6H4.9c.8-5.4 2-9 4-11.6L7.5 4.8C7.9 4 8.5 3.4 9.4 3Z"/><path d="M8.9 9.4h6.2"/><path d="M9.5 12.5v5M12 12.8v5.7M14.5 12.5v5" stroke-width="0.8"/>
  </g>
  <text x="200" y="402" font-family="Georgia, serif" font-size="30" fill="#b35a8c" text-anchor="middle" font-weight="bold">Choice</text>
  <text x="200" y="424" font-family="Arial, sans-serif" font-size="11.5" letter-spacing="4.5" fill="#b35a8c" fill-opacity="0.75" text-anchor="middle">FASHION STUDIO</text>
  <text x="200" y="452" font-family="Arial, sans-serif" font-size="12" fill="#b35a8c" fill-opacity="0.9" text-anchor="middle">Girls — studio photo coming soon</text>
</svg>