<svg xmlns="http://www.w3.org/2000/svg" width="800" height="1000" viewBox="0 0 400 500">
  <defs>
    <linearGradient id="bg" x1="0" y1="0" x2="1" y2="1">
      <stop offset="0" stop-color="#efede8"/>
      <stop offset="1" stop-color="#e3ddd2"/>
    </linearGradient>
    <pattern id="weave" width="9" height="9" patternTransform="rotate(45)" patternUnits="userSpaceOnUse">
      <line x1="0" y1="0" x2="0" y2="9" stroke="#4b4e53" stroke-opacity="0.05" stroke-width="1.4"/>
    </pattern>
  </defs>
  <rect width="400" height="500" fill="url(#bg)"/>
  <rect width="400" height="500" fill="url(#weave)"/>
  <circle cx="200" cy="218" r="118" fill="#ffffff" fill-opacity="0.42"/>
  <circle cx="200" cy="218" r="118" fill="none" stroke="#4b4e53" stroke-opacity="0.25" stroke-width="1.5" stroke-dasharray="3 6"/>
  <g transform="translate(108,126) scale(7.66)" fill="none" stroke="#4b4e53" stroke-width="1.15" stroke-linecap="round" stroke-linejoin="round">
    <path d="M7.5 4 4 7.5 6 11.5l1.7-1V20h8.6v-9.5l1.7 1 2-4L16.5 4c-1.2 2.2-2.8 3.1-4.5 3.1S9 6.2 7.5 4Z"/><path d="M12 8v12"/><path d="M9.3 13.5v2.6M14.7 13.5v2.6"/>
  </g>
  <text x="200" y="402" font-family="Georgia, serif" font-size="30" fill="#4b4e53" text-anchor="middle" font-weight="bold">Choice</text>
  <text x="200" y="424" font-family="Arial, sans-serif" font-size="11.5" letter-spacing="4.5" fill="#4b4e53" fill-opacity="0.75" text-anchor="middle">FASHION STUDIO</text>
  <text x="200" y="452" font-family="Arial, sans-serif" font-size="12" fill="#4b4e53" fill-opacity="0.9" text-anchor="middle">Winterwear — studio photo coming soon</text>
</svg>